PathFileType  4	(X/Y/Z) C:\Users\antoi\Documents\MyRepositories\mobilecap\ResultsAnalysis
DataRate	CameraRate	NumFrames	NumMarkers	Units	OrigDataRate	OrigDataStartFrame	OrigNumFrames
100.0	100.0	4	51	mm	100.0	1	149
Frame#	Time	r_knee			r_shank_antsup			r_ankle			r_calc			r_5meta			r_toe			L_knee			L_shank_antsup			L_ankle			L_calc			L_5meta			L_toe			r_sh2			r_sh3			r_sh4			L_sh2			L_sh3			r_thigh1			r_thigh2			r_thigh3			r_thigh4			r_thigh5			L_thigh1			L_thigh2			L_thigh3			L_thigh4			r.ASIS			r.PSIS			L.ASIS			L.PSIS			C7			R_Shoulder			L_Shoulder			R_Sternum			L_Sternum			R_humerus			R_elbow_med			R_elbow_lat			R_forearm			R_wrist_radius			R_wrist_ulna			L_humerus			L_elbow_med			L_elbow_lat			L_forearm			L_wrist_radius			L_wrist_ulna			R_HJC			L_HJC			R_HJC_reg			L_HJC_reg			
		X1	Y1	Z1	X2	Y2	Z2	X3	Y3	Z3	X4	Y4	Z4	X5	Y5	Z5	X6	Y6	Z6	X7	Y7	Z7	X8	Y8	Z8	X9	Y9	Z9	X10	Y10	Z10	X11	Y11	Z11	X12	Y12	Z12	X13	Y13	Z13	X14	Y14	Z14	X15	Y15	Z15	X16	Y16	Z16	X17	Y17	Z17	X18	Y18	Z18	X19	Y19	Z19	X20	Y20	Z20	X21	Y21	Z21	X22	Y22	Z22	X23	Y23	Z23	X24	Y24	Z24	X25	Y25	Z25	X26	Y26	Z26	X27	Y27	Z27	X28	Y28	Z28	X29	Y29	Z29	X30	Y30	Z30	X31	Y31	Z31	X32	Y32	Z32	X33	Y33	Z33	X34	Y34	Z34	X35	Y35	Z35	X36	Y36	Z36	X37	Y37	Z37	X38	Y38	Z38	X39	Y39	Z39	X40	Y40	Z40	X41	Y41	Z41	X42	Y42	Z42	X43	Y43	Z43	X44	Y44	Z44	X45	Y45	Z45	X46	Y46	Z46	X47	Y47	Z47	X48	Y48	Z48	X49	Y49	Z49	X50	Y50	Z50	X51	Y51	Z51	

1	0.00000000	60.82112	451.38234	-82.29978	114.40573	409.50987	-88.43393	176.53167	80.43114	-109.07548	130.67861	46.92046	-155.42836	294.75528	63.07318	-94.82363	324.61962	104.83699	-144.76887	-242.27745	458.69626	-318.44394	-243.27756	367.91399	-302.74113	-440.51361	123.31048	-293.13730	-508.33160	105.75634	-251.03864	-360.60052	40.61871	-318.83090	-310.27298	44.19858	-263.56735	138.06643	299.69702	-84.12887	44.18381	395.37738	-58.38614	60.27988	279.53242	-59.74608	-304.76833	418.16423	-345.36639	-369.46198	313.72518	-350.29782	23.58682	693.26294	-24.87332	59.35548	588.46736	-46.62157	6.60064	545.84684	-46.41979	-85.15101	654.32231	-33.87832	-43.89660	548.08532	-70.27655	-107.31131	702.41394	-383.88096	-147.05495	573.58663	-348.94593	-214.07010	732.22369	-380.75931	-252.40114	614.70539	-323.71549	18.59375	881.23404	-101.50547	-203.40802	922.73403	-144.65000	-8.95612	881.81034	-322.87757	-208.75469	927.59370	-224.66558	-88.44675	1356.16805	-220.29979	-36.19394	1333.86557	-74.02514	-44.59972	1307.60826	-358.17056	32.70354	1283.02993	-194.40429	30.78165	1279.42233	-233.65121	-29.41972	1226.54245	-0.06966	-144.24753	1035.36036	13.51882	-109.21031	1048.54103	67.02584	-56.25808	974.16769	94.16754	-33.38139	832.84309	118.49075	-62.96760	836.46357	143.72042	-46.47179	1199.66912	-421.88789	-122.53252	985.51928	-397.58475	-92.39585	1001.27492	-455.19365	-32.19812	913.06021	-466.38532	9.26226	791.57324	-454.32800	-23.06710	783.23122	-477.67134	-71.06705	798.90847	-96.63904	-98.36757	803.78417	-302.28382	-64.29572	810.66808	-130.63112	-74.09415	819.57435	-277.26721	
2	0.01000000	71.90821	452.43789	-81.64568	125.51123	409.12220	-87.48677	179.78640	79.69611	-109.25212	132.79821	47.93246	-155.50836	297.63812	57.96887	-95.66739	329.16892	98.17569	-145.90676	-228.07112	458.39359	-319.94873	-231.45109	367.09410	-305.25124	-435.73197	128.24888	-295.47090	-503.41316	113.50891	-252.71298	-359.05487	40.63565	-319.45888	-308.62295	43.21909	-264.32270	146.63988	298.93437	-83.71545	54.93138	396.51303	-58.22489	68.29018	280.38301	-60.23498	-291.60751	419.75062	-346.48620	-359.64810	317.50251	-351.42907	35.33993	693.87143	-23.54391	70.33879	588.70297	-45.24215	17.26522	546.64036	-46.73303	-73.58080	655.97109	-33.68153	-33.27465	549.81131	-70.21590	-93.42541	702.65308	-383.54678	-132.77033	573.43696	-349.63261	-200.24521	732.13279	-379.95646	-238.03099	613.88925	-323.36936	31.60772	881.83326	-101.11263	-189.83513	923.63846	-143.73884	4.13806	881.66795	-322.31935	-195.01211	927.92965	-224.01575	-76.30329	1357.34603	-215.76775	-24.14833	1333.48611	-69.77891	-32.56696	1310.48840	-354.30231	45.49662	1284.61146	-190.71229	43.19776	1281.22776	-230.04593	-17.03305	1225.24346	3.06373	-131.05756	1033.53465	14.54172	-96.11749	1046.41880	68.27924	-43.17908	971.93172	95.05971	-20.08264	830.18240	118.30469	-49.60463	833.80303	143.49981	-34.84048	1203.21858	-419.09357	-112.57514	989.45907	-397.06006	-82.21034	1005.59510	-454.23406	-23.25265	916.55915	-466.29977	15.79553	794.09275	-455.86128	-16.48783	786.93671	-479.63820	-57.76496	799.64495	-95.67094	-85.32833	803.82949	-301.30122	-51.52559	811.76783	-129.85048	-60.98147	819.61170	-276.45022	
3	0.02000000	83.10429	453.73361	-80.85117	136.45765	408.92665	-86.39041	182.78640	79.03699	-109.34251	134.73588	48.92935	-155.50778	300.30269	53.28242	-96.38644	333.35607	92.00574	-146.91109	-213.23504	457.87472	-321.59984	-219.07097	366.13118	-307.91986	-430.42732	133.29802	-297.77166	-497.99962	121.70027	-254.41356	-357.42341	40.78755	-320.05861	-306.91040	42.30441	-265.06679	155.04288	298.37478	-83.12331	65.54775	397.85778	-57.84259	76.17880	281.46346	-60.42104	-277.80692	421.18310	-347.78462	-349.27272	321.25143	-352.66466	47.18202	694.88602	-22.22400	81.52120	589.42978	-43.84195	28.23552	547.79578	-46.74004	-61.89417	657.81135	-33.23269	-22.42365	551.73869	-69.87444	-79.36622	702.90843	-383.17899	-118.08246	573.22174	-350.39798	-186.25525	731.88395	-379.10268	-223.32051	612.85195	-323.13925	44.48243	882.65387	-100.67776	-176.42669	924.77413	-142.97414	17.24156	881.71095	-321.73692	-181.38503	928.43748	-223.48987	-64.16785	1358.68508	-211.23871	-12.03734	1333.22908	-65.53265	-20.49481	1313.51712	-350.41042	58.25195	1286.28771	-187.00352	55.64529	1283.14672	-226.40486	-4.56823	1224.09711	6.16248	-117.80078	1031.88366	15.56254	-82.93641	1044.44458	69.51757	-29.99286	969.86297	95.90743	-6.63318	827.74321	118.06714	-36.14655	831.31336	143.22871	-23.23761	1206.91923	-416.28510	-102.62293	993.57809	-396.43668	-72.07022	1010.08533	-453.22471	-14.32078	920.24339	-466.18102	22.34772	796.83796	-457.33367	-9.86780	790.82193	-481.52273	-44.63279	800.61193	-94.70974	-72.30843	804.05465	-300.34331	-38.88893	813.14101	-129.03340	-47.91700	819.81858	-275.59960	
4	0.03000000	94.43277	455.41471	-79.81605	147.10627	409.04471	-85.05802	185.33791	78.50763	-109.27886	136.35387	49.89126	-155.36986	302.58178	49.33024	-96.90003	336.90415	86.70622	-147.69096	-197.24782	456.96179	-323.51031	-205.66835	364.91782	-310.84830	-424.16404	138.57913	-300.00754	-491.62988	130.71778	-256.14297	-355.65466	41.23337	-320.59782	-305.07515	41.54538	-265.80043	163.12273	298.14916	-82.24228	75.91347	399.54281	-57.08034	83.83055	282.92362	-60.08757	-262.82998	422.33728	-349.39933	-337.84562	324.94591	-354.08275	59.17227	696.58587	-20.92740	93.02394	590.97364	-42.41337	39.70061	549.55882	-46.22885	-50.01919	659.97670	-32.33200	-11.20098	553.99636	-69.03806	-64.99783	703.18896	-382.75629	-102.66012	572.88471	-351.30515	-171.97679	731.33642	-378.17278	-207.99464	611.39765	-323.12975	57.11332	883.88633	-100.16378	-163.31876	926.30852	-142.48476	30.32988	882.07431	-321.10289	-167.96906	929.24645	-223.19865	-52.04895	1360.29756	-206.71449	0.17904	1333.19128	-61.29750	-8.34947	1316.80735	-346.47493	70.93204	1288.13120	-183.26676	68.12934	1285.26538	-222.70380	8.02851	1223.22804	9.19780	-104.43032	1030.54974	16.57989	-69.60832	1042.74147	70.73164	-16.62282	968.10103	96.67785	7.08250	825.70035	117.73623	-22.50853	829.13236	142.86781	-11.67922	1210.89379	-413.45357	-92.67826	998.02365	-395.63624	-62.01547	1014.88275	-452.12615	-5.42120	924.26584	-466.00803	28.93957	799.99799	-458.70133	-3.17672	795.04001	-483.25854	-31.80619	802.00131	-93.75358	-59.32883	804.58592	-299.42059	-26.49309	814.98395	-128.15450	-34.93758	820.32470	-274.69190	
